# xmcd
#
# Track frame offsets: 
#        183
#        13515
#        22428
#        33583
#        45488
#        54208
#        61883
#        75645
#        89585
#        102818
#        114818
#        127188
#        141210
#        151225
#        165493
#        178275
#        191795
#        201510
#        214978
#
# Disc length: 2999 seconds
#
# Revision: 10
# Processed by: cddbd v1.5.2PL0 Copyright (c) Steve Scherf et al.
# Submitted via: ExactAudioCopy v1.0b3
#
DISCID=0e0bb513
DTITLE=Various Artist - Country and Western Favourites Volume 4
DYEAR=1992
DGENRE=Country
TTITLE0=Helms, Bobby - My Special Angel
TTITLE1=Husky, Ferlin - Wings Of A Dove
TTITLE2=Perkins, Carl - Dixie Fried
TTITLE3=Cline, Patsy - Today, Tomorrow And Forever
TTITLE4=Twitty, Conway - Blue Is The Way That I Feel
TTITLE5=Jones, George - Ragged But Right
TTITLE6=Nelson, Willie - You'll Always Have Someone
TTITLE7=Fender, Freddy - Wasted Days And Wasted Nights
TTITLE8=Fargo, Donna - Daddy
TTITLE9=Drusky, Roy - Take These Chains From My Heart
TTITLE10=Jackson, Stonewall - Ol' Blue
TTITLE11=Fairchild, Barbara - Crazy Love
TTITLE12=Mandrell, Barbara - Kaw-Liga
TTITLE13=Rogers, Kenny And The First Edition - Sunshine
TTITLE14=Wells, Kitty - Making Believe
TTITLE15=Williams, Don - Ruby Tuesday
TTITLE16=Miller, Ned - From A Jack To A King
TTITLE17=Anderson, Lynn - Rose Garden
TTITLE18=Owens, Buck - Rhythm And Booze
EXTD=
EXTT0=
EXTT1=
EXTT2=
EXTT3=
EXTT4=
EXTT5=
EXTT6=
EXTT7=
EXTT8=
EXTT9=
EXTT10=
EXTT11=
EXTT12=
EXTT13=
EXTT14=
EXTT15=
EXTT16=
EXTT17=
EXTT18=
PLAYORDER=
